<?xml version="1.0" standalone="no"?>
<!DOCTYPE svg PUBLIC "-//W3C//DTD SVG 20010904//EN"
 "http://www.w3.org/TR/2001/REC-SVG-20010904/DTD/svg10.dtd">
<svg version="1.0" xmlns="http://www.w3.org/2000/svg"
 width="512.000000pt" height="512.000000pt" viewBox="0 0 512.000000 512.000000"
 preserveAspectRatio="xMidYMid meet">
<metadata>
Created by potrace 1.16, written by Peter Selinger 2001-2019
</metadata>
<g transform="translate(0.000000,512.000000) scale(0.100000,-0.100000)"
fill="#000000" stroke="none">
<path d="M1120 4795 c-552 -104 -962 -525 -1092 -1119 -30 -137 -33 -503 -5
-636 108 -513 419 -940 1177 -1615 174 -155 1246 -1074 1279 -1097 35 -24 127
-24 162 0 36 24 1179 1006 1324 1137 497 449 763 751 943 1071 95 168 174 396
201 581 18 122 14 375 -9 509 -93 544 -451 974 -940 1128 -144 46 -254 59
-444 53 -228 -7 -341 -36 -533 -136 -126 -67 -224 -143 -343 -267 -91 -96
-228 -282 -261 -356 -7 -16 -15 -28 -19 -28 -4 0 -12 12 -19 28 -33 74 -170
260 -261 356 -191 199 -376 311 -625 377 -105 28 -419 36 -535 14z m447 -315
c181 -42 312 -117 458 -264 55 -56 128 -141 162 -191 73 -109 160 -279 202
-398 48 -138 78 -167 171 -167 93 0 123 29 171 167 131 373 402 696 678 808
205 84 464 89 681 15 156 -54 271 -128 395 -255 143 -146 234 -311 292 -533
35 -132 44 -392 19 -527 -36 -193 -123 -396 -249 -586 -106 -159 -231 -304
-456 -530 -262 -261 -351 -341 -1028 -920 l-503 -430 -507 434 c-676 578 -760
653 -1024 916 -225 226 -349 369 -456 530 -126 190 -213 393 -249 586 -25 135
-16 395 19 527 35 132 86 254 149 356 62 100 205 250 297 312 229 153 519 209
778 150z"/>
</g>
</svg>
