<?xml version="1.0" standalone="no"?>
<!DOCTYPE svg PUBLIC "-//W3C//DTD SVG 1.0//EN" "http://www.w3.org/TR/2001/REC-SVG-20010904/DTD/svg10.dtd">
<svg xmlns="http://www.w3.org/2000/svg" xmlns:xlink="http://www.w3.org/1999/xlink" id="body_1" width="164" height="28">

<defs>
    <clipPath  id="1">

    <path id=""  clip-rule="evenodd" transform="matrix(1 0 0 1 0 0)"  d="M0 21L0 -0.75L0 -0.75L123.75 -0.75L123.75 -0.75L123.75 21L123.75 21L0 21z" />    </clipPath>
</defs>

<g transform="matrix(1.3333 0 0 1.3333 0 0)">
	<g clip-path="url(#1)" >
    <path id=""  transform="matrix(1 0 0 -1 0 21)"  d="M12.276 4.5L12.276 4.5L12.276 4.5L12.24 10.242001L12.24 10.242001L9.504 5.633999L9.504 5.633999L9.504 5.633999L9.504 5.633999L7.632 5.633999L7.632 5.633999L4.896 10.044001L4.896 10.044001L4.896 10.044001L4.896 10.044001L4.896 4.5L4.896 4.5L4.896 4.5L4.896 4.5L1.026 4.5L1.026 4.5L1.026 4.5L1.026 4.5L1.026 17.1L1.026 17.1L1.026 17.1L1.026 17.1L4.518 17.1L4.518 17.1L8.622 10.386L8.622 10.386L12.618 17.1L12.618 17.1L12.618 17.1L12.618 17.1L16.11 17.1L16.11 17.1L16.146 4.5L16.146 4.5L16.146 4.5L16.146 4.5L12.276 4.5z" stroke="#FFFFFF" stroke-width="1" fill="#FF4D00" fill-rule="nonzero" />
    <path id=""  transform="matrix(1 0 0 -1 0 21)"  d="M46.7481 17.1L46.7481 17.1L46.7481 17.1L46.7481 17.1L46.7481 17.1L50.996098 17.1L50.996098 17.1L50.996098 17.1L50.996098 17.1L50.996098 4.5L50.996098 4.5L50.996098 4.5L50.996098 4.5L46.7481 4.5L46.7481 4.5L46.7481 4.5L46.7481 4.5L46.7481 17.1zM39.558228 7.4699993C 40.494225 7.4699993 40.962223 7.799999 40.962223 8.460001L40.962223 8.460001L40.962223 8.460001C 40.962223 9.12 40.494225 9.450001 39.558228 9.450001L39.558228 9.450001L39.558228 9.450001L39.558228 9.450001L37.002224 9.450001L37.002224 9.450001L37.002224 9.450001L37.002224 9.450001L37.002224 7.4699993L37.002224 7.4699993L37.002224 7.4699993L37.002224 7.4699993L39.558228 7.4699993zM37.002224 14.13L37.002224 14.13L37.002224 14.13L37.002224 14.13L37.002224 14.13L37.002224 12.257999L37.002224 12.257999L37.002224 12.257999L37.002224 12.257999L38.982224 12.257999L38.982224 12.257999L38.982224 12.257999C 39.906227 12.257999 40.368225 12.57 40.368225 13.194L40.368225 13.194L40.368225 13.194C 40.368225 13.818 39.906227 14.13 38.982224 14.13L38.982224 14.13L38.982224 14.13L38.982224 14.13L37.002224 14.13zM42.906227 11.088C 43.650223 10.812 44.226227 10.41 44.634224 9.882L44.634224 9.882L44.634224 9.882C 45.042225 9.354 45.246223 8.718 45.246223 7.974L45.246223 7.974L45.246223 7.974C 45.246223 6.87 44.790222 6.012001 43.878223 5.4000015L43.878223 5.4000015L43.878223 5.4000015C 42.966225 4.799999 41.646225 4.5 39.918224 4.5L39.918224 4.5L39.918224 4.5L39.918224 4.5L32.826225 4.5L32.826225 4.5L32.826225 4.5L32.826225 4.5L32.826225 17.1L32.826225 17.1L32.826225 17.1L32.826225 17.1L39.558228 17.1L39.558228 17.1L39.558228 17.1C 41.238224 17.1 42.504223 16.8 43.356224 16.2L43.356224 16.2L43.356224 16.2C 44.220226 15.6 44.652225 14.802 44.652225 13.806L44.652225 13.806L44.652225 13.806C 44.652225 13.217999 44.502224 12.690001 44.202225 12.222L44.202225 12.222L44.202225 12.222C 43.914223 11.754 43.482224 11.376 42.906227 11.088zM24.174374 7.6500006C 24.702375 7.6500006 25.176376 7.776 25.596376 8.028L25.596376 8.028L25.596376 8.028C 26.028374 8.292 26.370375 8.658001 26.622374 9.125999L26.622374 9.125999L26.622374 9.125999C 26.874374 9.606001 27.000374 10.164 27.000374 10.799999L27.000374 10.799999L27.000374 10.799999C 27.000374 11.436 26.874374 11.988 26.622374 12.455999L26.622374 12.455999L26.622374 12.455999C 26.370375 12.936 26.028374 13.302 25.596376 13.554L25.596376 13.554L25.596376 13.554C 25.176376 13.818 24.702375 13.950001 24.174374 13.950001L24.174374 13.950001L24.174374 13.950001C 23.646374 13.950001 23.166374 13.818 22.734375 13.554L22.734375 13.554L22.734375 13.554C 22.314375 13.302 21.978374 12.936 21.726376 12.455999L21.726376 12.455999L21.726376 12.455999C 21.474375 11.988 21.348375 11.436 21.348375 10.799999L21.348375 10.799999L21.348375 10.799999C 21.348375 10.164 21.474375 9.606001 21.726376 9.125999L21.726376 9.125999L21.726376 9.125999C 21.978374 8.658001 22.314375 8.292 22.734375 8.028L22.734375 8.028L22.734375 8.028C 23.166374 7.776 23.646374 7.6500006 24.174374 7.6500006zM24.174374 4.212C 22.818375 4.212 21.600376 4.4939995 20.520374 5.0579987L20.520374 5.0579987L20.520374 5.0579987C 19.440374 5.6219997 18.594376 6.4019995 17.982374 7.3980007L17.982374 7.3980007L17.982374 7.3980007C 17.370375 8.406 17.064375 9.539999 17.064375 10.799999L17.064375 10.799999L17.064375 10.799999C 17.064375 12.059999 17.370375 13.188 17.982374 14.184L17.982374 14.184L17.982374 14.184C 18.594376 15.191999 19.440374 15.978 20.520374 16.542L20.520374 16.542L20.520374 16.542C 21.600376 17.105999 22.818375 17.388 24.174374 17.388L24.174374 17.388L24.174374 17.388C 25.530376 17.388 26.748375 17.105999 27.828375 16.542L27.828375 16.542L27.828375 16.542C 28.908375 15.978 29.754375 15.191999 30.366375 14.184L30.366375 14.184L30.366375 14.184C 30.978374 13.188 31.284376 12.059999 31.284376 10.799999L31.284376 10.799999L31.284376 10.799999C 31.284376 9.539999 30.978374 8.406 30.366375 7.3980007L30.366375 7.3980007L30.366375 7.3980007C 29.754375 6.4019995 28.908375 5.6219997 27.828375 5.0579987L27.828375 5.0579987L27.828375 5.0579987C 26.748375 4.4939995 25.530376 4.212 24.174374 4.212z" stroke="#FFFFFF" stroke-width="1" fill="#000000" fill-rule="nonzero" />
    <path id=""  transform="matrix(1 0 0 -1 0 21)"  d="M60.4911 11.142L60.4911 11.142L60.4911 11.142L60.4911 11.142L60.4911 11.142L64.1811 11.142L64.1811 11.142L64.1811 11.142L64.1811 11.142L64.1811 5.814001L64.1811 5.814001L64.1811 5.814001C 63.437103 5.2980003 62.5731 4.9020004 61.589096 4.6259995L61.589096 4.6259995L61.589096 4.6259995C 60.605103 4.3499985 59.6391 4.212 58.6911 4.212L58.6911 4.212L58.6911 4.212C 57.3471 4.212 56.141098 4.487999 55.0731 5.039999L55.0731 5.039999L55.0731 5.039999C 54.005096 5.604 53.1651 6.383999 52.5531 7.38L52.5531 7.38L52.5531 7.38C 51.9531 8.3880005 51.6531 9.528 51.6531 10.799999L51.6531 10.799999L51.6531 10.799999C 51.6531 12.072 51.9531 13.205999 52.5531 14.202L52.5531 14.202L52.5531 14.202C 53.1651 15.21 54.0111 15.99 55.091103 16.542L55.091103 16.542L55.091103 16.542C 56.183098 17.105999 57.413097 17.388 58.7811 17.388L58.7811 17.388L58.7811 17.388C 60.017097 17.388 61.121098 17.178 62.0931 16.758L62.0931 16.758L62.0931 16.758C 63.0771 16.35 63.893105 15.75 64.5411 14.958L64.5411 14.958L61.8231 12.564C 61.0311 13.488 60.089096 13.950001 58.9971 13.950001L58.9971 13.950001L58.9971 13.950001C 58.061104 13.950001 57.3171 13.668 56.7651 13.104L56.7651 13.104L56.7651 13.104C 56.213097 12.54 55.937103 11.772 55.937103 10.799999L55.937103 10.799999L55.937103 10.799999C 55.937103 9.851999 56.2071 9.09 56.7471 8.514L56.7471 8.514L56.7471 8.514C 57.299103 7.9379997 58.0311 7.6500006 58.9431 7.6500006L58.9431 7.6500006L58.9431 7.6500006C 59.4831 7.6500006 59.9991 7.752001 60.4911 7.9559994L60.4911 7.9559994L60.4911 7.9559994L60.4911 7.9559994L60.4911 11.142z" stroke="#FFFFFF" stroke-width="1" fill="#FF4D00" fill-rule="nonzero" />
    <path id=""  transform="matrix(1 0 0 -1 0 21)"  d="M102.23775 7.8120003C 103.14975 7.8120003 103.875755 8.07 104.41574 8.586L104.41574 8.586L104.41574 8.586C 104.96775 9.114 105.243744 9.851999 105.243744 10.799999L105.243744 10.799999L105.243744 10.799999C 105.243744 11.747999 104.96775 12.4800005 104.41574 12.996L104.41574 12.996L104.41574 12.996C 103.875755 13.524 103.14975 13.788 102.23775 13.788L102.23775 13.788L102.23775 13.788L102.23775 13.788L100.45575 13.788L100.45575 13.788L100.45575 13.788L100.45575 13.788L100.45575 7.8120003L100.45575 7.8120003L100.45575 7.8120003L100.45575 7.8120003L102.23775 7.8120003zM96.20775 17.1L96.20775 17.1L96.20775 17.1L96.20775 17.1L96.20775 17.1L102.417755 17.1L102.417755 17.1L102.417755 17.1C 103.82175 17.1 105.05775 16.842 106.125755 16.326L106.125755 16.326L106.125755 16.326C 107.20575 15.8220005 108.03975 15.096001 108.627754 14.148001L108.627754 14.148001L108.627754 14.148001C 109.227745 13.200001 109.527756 12.084001 109.527756 10.799999L109.527756 10.799999L109.527756 10.799999C 109.527756 9.516 109.227745 8.400001 108.627754 7.4520006L108.627754 7.4520006L108.627754 7.4520006C 108.03975 6.5040007 107.20575 5.7719994 106.125755 5.2560005L106.125755 5.2560005L106.125755 5.2560005C 105.05775 4.752001 103.82175 4.5 102.417755 4.5L102.417755 4.5L102.417755 4.5L102.417755 4.5L96.20775 4.5L96.20775 4.5L96.20775 4.5L96.20775 4.5L96.20775 17.1zM87.55575 7.6500006C 88.08375 7.6500006 88.557755 7.776 88.97775 8.028L88.97775 8.028L88.97775 8.028C 89.409744 8.292 89.75175 8.658001 90.003746 9.125999L90.003746 9.125999L90.003746 9.125999C 90.25575 9.606001 90.38175 10.164 90.38175 10.799999L90.38175 10.799999L90.38175 10.799999C 90.38175 11.436 90.25575 11.988 90.003746 12.455999L90.003746 12.455999L90.003746 12.455999C 89.75175 12.936 89.409744 13.302 88.97775 13.554L88.97775 13.554L88.97775 13.554C 88.557755 13.818 88.08375 13.950001 87.55575 13.950001L87.55575 13.950001L87.55575 13.950001C 87.027756 13.950001 86.54775 13.818 86.11575 13.554L86.11575 13.554L86.11575 13.554C 85.695755 13.302 85.35976 12.936 85.10775 12.455999L85.10775 12.455999L85.10775 12.455999C 84.85575 11.988 84.72975 11.436 84.72975 10.799999L84.72975 10.799999L84.72975 10.799999C 84.72975 10.164 84.85575 9.606001 85.10775 9.125999L85.10775 9.125999L85.10775 9.125999C 85.35976 8.658001 85.695755 8.292 86.11575 8.028L86.11575 8.028L86.11575 8.028C 86.54775 7.776 87.027756 7.6500006 87.55575 7.6500006zM87.55575 4.212C 86.19975 4.212 84.98175 4.4939995 83.90175 5.0579987L83.90175 5.0579987L83.90175 5.0579987C 82.82175 5.6219997 81.97575 6.4019995 81.363754 7.3980007L81.363754 7.3980007L81.363754 7.3980007C 80.75175 8.406 80.445755 9.539999 80.445755 10.799999L80.445755 10.799999L80.445755 10.799999C 80.445755 12.059999 80.75175 13.188 81.363754 14.184L81.363754 14.184L81.363754 14.184C 81.97575 15.191999 82.82175 15.978 83.90175 16.542L83.90175 16.542L83.90175 16.542C 84.98175 17.105999 86.19975 17.388 87.55575 17.388L87.55575 17.388L87.55575 17.388C 88.91175 17.388 90.129745 17.105999 91.20975 16.542L91.20975 16.542L91.20975 16.542C 92.28975 15.978 93.13575 15.191999 93.74775 14.184L93.74775 14.184L93.74775 14.184C 94.35976 13.188 94.66575 12.059999 94.66575 10.799999L94.66575 10.799999L94.66575 10.799999C 94.66575 9.539999 94.35976 8.406 93.74775 7.3980007L93.74775 7.3980007L93.74775 7.3980007C 93.13575 6.4019995 92.28975 5.6219997 91.20975 5.0579987L91.20975 5.0579987L91.20975 5.0579987C 90.129745 4.4939995 88.91175 4.212 87.55575 4.212zM72.29783 7.6500006C 72.82582 7.6500006 73.29983 7.776 73.719826 8.028L73.719826 8.028L73.719826 8.028C 74.151825 8.292 74.49383 8.658001 74.74583 9.125999L74.74583 9.125999L74.74583 9.125999C 74.997826 9.606001 75.12375 10.164 75.12375 10.799999L75.12375 10.799999L75.12375 10.799999C 75.12375 11.436 74.997826 11.988 74.74583 12.455999L74.74583 12.455999L74.74583 12.455999C 74.49383 12.936 74.151825 13.302 73.719826 13.554L73.719826 13.554L73.719826 13.554C 73.29983 13.818 72.82582 13.950001 72.29783 13.950001L72.29783 13.950001L72.29783 13.950001C 71.76982 13.950001 71.289825 13.818 70.85782 13.554L70.85782 13.554L70.85782 13.554C 70.43782 13.302 70.10182 12.936 69.84982 12.455999L69.84982 12.455999L69.84982 12.455999C 69.597824 11.988 69.471825 11.436 69.471825 10.799999L69.471825 10.799999L69.471825 10.799999C 69.471825 10.164 69.597824 9.606001 69.84982 9.125999L69.84982 9.125999L69.84982 9.125999C 70.10182 8.658001 70.43782 8.292 70.85782 8.028L70.85782 8.028L70.85782 8.028C 71.289825 7.776 71.76982 7.6500006 72.29783 7.6500006zM72.29783 4.212C 70.941826 4.212 69.72383 4.4939995 68.64383 5.0579987L68.64383 5.0579987L68.64383 5.0579987C 67.56383 5.6219997 66.71783 6.4019995 66.10582 7.3980007L66.10582 7.3980007L66.10582 7.3980007C 65.49383 8.406 65.18782 9.539999 65.18782 10.799999L65.18782 10.799999L65.18782 10.799999C 65.18782 12.059999 65.49383 13.188 66.10582 14.184L66.10582 14.184L66.10582 14.184C 66.71783 15.191999 67.56383 15.978 68.64383 16.542L68.64383 16.542L68.64383 16.542C 69.72383 17.105999 70.941826 17.388 72.29783 17.388L72.29783 17.388L72.29783 17.388C 73.653824 17.388 74.871826 17.105999 75.95175 16.542L75.95175 16.542L75.95175 16.542C 77.03175 15.978 77.87775 15.191999 78.489746 14.184L78.489746 14.184L78.489746 14.184C 79.10175 13.188 79.407745 12.059999 79.407745 10.799999L79.407745 10.799999L79.407745 10.799999C 79.407745 9.539999 79.10175 8.406 78.489746 7.3980007L78.489746 7.3980007L78.489746 7.3980007C 77.87775 6.4019995 77.03175 5.6219997 75.95175 5.0579987L75.95175 5.0579987L75.95175 5.0579987C 74.871826 4.4939995 73.653824 4.212 72.29783 4.212z" stroke="#FFFFFF" stroke-width="1" fill="#000000" fill-rule="nonzero" />
	</g>
</g>
</svg>